# xmcd
#
# Track frame offsets: 
#        150
#        10863
#        20236
#        29723
#        34798
#        47665
#        58578
#        70976
#        84554
#        97172
#        112065
#        126242
#        143183
#
# Disc length: 2119 seconds
#
# Revision: 0
# Processed by: cddbd v1.5.2PL0 Copyright (c) Steve Scherf et al.
# Submitted via: ExactAudioCopy v0.99pb4
#
DISCID=bf08450d
DTITLE=Rev. Peter J. Madori - Circuit-Ridin' Padre
DYEAR=2008
DGENRE=Country
TTITLE0=Introduction
TTITLE1=Lonesome Cowboy
TTITLE2=Sod Shanty
TTITLE3=Springtime In The Rockies
TTITLE4=Green Grow The Lilacs
TTITLE5=(There's A) Goldmine In The Sky
TTITLE6=South Of The Border (Down Mexico Way)
TTITLE7=That Silver-Haired Daddy Of Mine
TTITLE8=These Hands
TTITLE9=Padre
TTITLE10=The Great Speckled Bird
TTITLE11=(Ghost) Riders In The Sky
TTITLE12=Desperado
EXTD=
EXTT0=
EXTT1=
EXTT2=
EXTT3=
EXTT4=
EXTT5=
EXTT6=
EXTT7=
EXTT8=
EXTT9=
EXTT10=
EXTT11=
EXTT12=
PLAYORDER=
